<svg width="150" height="150" version="1.1" xmlns="http://www.w3.org/2000/svg" desc="Created with imagetracer.js version 1.2.6" ><path fill="rgb(0,0,0)" stroke="rgb(0,0,0)" stroke-width="1" opacity="0" d="M 0 0 L 150 0 L 150 150 L 0 150 L 0 0 Z M 70 5 L 69 6 L 58 7 L 47 11 L 29 23 Q 17 33 11 49 Q 7 58 7 71 L 7 73 L 6 78 L 12 101 L 17 110 L 17 112 L 19 112 L 26 122 L 40 132 L 54 138 L 56 138 L 56 140 L 58 139 L 65 141 L 71 141 L 74 142 L 75 141 L 85 141 L 91 139 L 93 140 L 95 138 L 100 137 L 110 132 L 119 126 L 133 110 L 141 91 L 142 79 L 143 78 L 143 67 L 141 56 Q 137 41 129 32 Q 120 19 106 12 L 89 6 L 70 5 Z " /><path fill="rgb(219,43,73)" stroke="rgb(219,43,73)" stroke-width="1" opacity="0.7372549019607844" d="M 71.5 5 L 87.5 6 L 100.5 10 Q 118 17.5 129 31.5 L 139 49.5 Q 143 59.5 143 73.5 L 142 73.5 L 141 60.5 L 137 47.5 Q 130.6 31.9 118.5 22 Q 102.6 6.9 72.5 6 L 71.5 7 L 58.5 8 L 49.5 11 Q 33.2 17.7 23 30.5 Q 9.3 45.8 7.5 73 L 7 65.5 Q 12.2 34.2 33.5 19 L 51.5 9 L 71.5 5 Z " /><path fill="rgb(219,43,73)" stroke="rgb(219,43,73)" stroke-width="1" opacity="0.7372549019607844" d="M 57.5 20 L 60 20.5 L 57.5 21 L 57.5 20 Z " /><path fill="rgb(219,43,73)" stroke="rgb(219,43,73)" stroke-width="1" opacity="0.7372549019607844" d="M 61.5 20 L 64 20.5 L 61.5 21 L 61.5 20 Z " /><path fill="rgb(219,43,73)" stroke="rgb(219,43,73)" stroke-width="1" opacity="0.7372549019607844" d="M 73.5 25 L 72.5 27 L 69.5 28 L 69 26 L 73.5 25 Z " /><path fill="rgb(219,43,73)" stroke="rgb(219,43,73)" stroke-width="1" opacity="0.7372549019607844" d="M 45.5 26 L 44.5 28 L 45.5 26 Z " /><path fill="rgb(219,43,73)" stroke="rgb(219,43,73)" stroke-width="1" opacity="0.7372549019607844" d="M 77.5 26 Q 81.9 24.5 81 27.5 L 79.5 27 Q 76.5 27.5 77.5 26 Z " /><path fill="rgb(219,43,73)" stroke="rgb(219,43,73)" stroke-width="1" opacity="0.7372549019607844" d="M 86.5 31 L 85.5 33 L 86.5 31 Z " /><path fill="rgb(219,43,73)" stroke="rgb(219,43,73)" stroke-width="1" opacity="0.7372549019607844" d="M 82.5 37 L 83.5 39 L 82.5 37 Z " /><path fill="rgb(219,43,73)" stroke="rgb(219,43,73)" stroke-width="1" opacity="0.7372549019607844" d="M 39.5 39 L 40 42.5 L 39 42.5 L 39.5 39 Z " /><path fill="rgb(219,43,73)" stroke="rgb(219,43,73)" stroke-width="1" opacity="0.7372549019607844" d="M 44.5 54 L 47.5 58 L 44.5 54 Z " /><path fill="rgb(216,0,37)" stroke="rgb(216,0,37)" stroke-width="1" opacity="1" d="M 57.5 19 L 64 19.5 L 57.5 20 L 57.5 19 Z " /><path fill="rgb(216,0,37)" stroke="rgb(216,0,37)" stroke-width="1" opacity="1" d="M 57.5 25 L 53.5 30 L 57.5 25 Z " /><path fill="rgb(216,0,37)" stroke="rgb(216,0,37)" stroke-width="1" opacity="1" d="M 69.5 25 L 73 25.5 L 69.5 26 L 69.5 25 Z " /><path fill="rgb(216,0,37)" stroke="rgb(216,0,37)" stroke-width="1" opacity="1" d="M 77.5 25 L 80 25.5 L 77.5 26 L 77.5 25 Z " /><path fill="rgb(216,0,37)" stroke="rgb(216,0,37)" stroke-width="1" opacity="1" d="M 61.5 32 L 62 33.5 L 58.5 35 L 58.5 34 Q 62 35 61.5 32 Z " /><path fill="rgb(216,0,37)" stroke="rgb(216,0,37)" stroke-width="1" opacity="1" d="M 65.5 32 L 66 34 L 69 34.5 L 66.5 35 L 65.5 32 Z " /><path fill="rgb(216,0,37)" stroke="rgb(216,0,37)" stroke-width="1" opacity="1" d="M 84.5 32 L 85 33.5 L 81.5 35 L 81.5 34 Q 85 35 84.5 32 Z " /><path fill="rgb(216,0,37)" stroke="rgb(216,0,37)" stroke-width="1" opacity="1" d="M 88.5 33 L 91 34.5 L 88 35 L 88.5 33 Z " /><path fill="rgb(216,0,37)" stroke="rgb(216,0,37)" stroke-width="1" opacity="1" d="M 58.5 37 L 59.5 39 L 58.5 37 Z " /><path fill="rgb(216,0,37)" stroke="rgb(216,0,37)" stroke-width="1" opacity="1" d="M 68.5 37 L 68 38.5 L 67.5 40 L 67 38.5 L 68.5 37 Z " /><path fill="rgb(216,0,37)" stroke="rgb(216,0,37)" stroke-width="1" opacity="1" d="M 91.5 37 L 91 38.5 L 90.5 41 L 90 38.5 L 91.5 37 Z " /><path fill="rgb(216,0,37)" stroke="rgb(216,0,37)" stroke-width="1" opacity="1" d="M 65.5 42 L 67 44.5 L 66 44.5 L 65.5 42 Z " /><path fill="rgb(216,0,37)" stroke="rgb(216,0,37)" stroke-width="1" opacity="1" d="M 63.5 47 L 66 47.5 L 63.5 48 L 63.5 47 Z " /><path fill="rgb(216,0,37)" stroke="rgb(216,0,37)" stroke-width="1" opacity="1" d="M 77.5 47 L 80 47.5 L 77.5 48 L 77.5 47 Z " /><path fill="rgb(216,0,37)" stroke="rgb(216,0,37)" stroke-width="1" opacity="1" d="M 51.5 48 L 53 50.5 L 51 49.5 L 51.5 48 Z " /><path fill="rgb(216,0,37)" stroke="rgb(216,0,37)" stroke-width="1" opacity="1" d="M 62.5 50 L 63.5 52 L 62.5 50 Z " /><path fill="rgb(216,0,37)" stroke="rgb(216,0,37)" stroke-width="1" opacity="1" d="M 53.5 52 L 54.5 54 L 53.5 52 Z " /><path fill="rgb(216,0,37)" stroke="rgb(216,0,37)" stroke-width="1" opacity="1" d="M 67.5 54 L 65.5 57 L 64 56.5 L 67.5 54 Z " /><path fill="rgb(216,0,37)" stroke="rgb(216,0,37)" stroke-width="1" opacity="1" d="M 81.5 54 L 80.5 56 L 81.5 54 Z " /><path fill="rgb(216,0,37)" stroke="rgb(216,0,37)" stroke-width="1" opacity="1" d="M 69.5 55 L 70.5 57 L 69.5 55 Z " /><path fill="rgb(216,0,37)" stroke="rgb(216,0,37)" stroke-width="1" opacity="1" d="M 83.5 55 L 84.5 57 L 83.5 55 Z " /><path fill="rgb(216,0,37)" stroke="rgb(216,0,37)" stroke-width="1" opacity="1" d="M 57.5 56 L 58.5 58 L 57.5 56 Z " /><path fill="rgb(216,0,37)" stroke="rgb(216,0,37)" stroke-width="1" opacity="1" d="M 55.5 62 L 58 62.5 L 55.5 63 L 55.5 62 Z " /><path fill="rgb(216,0,38)" stroke="rgb(216,0,38)" stroke-width="1" opacity="0.996078431372549" d="M 72.5 6 L 74.5 7 L 76 6.5 L 75.5 8 L 87.5 7 L 87.5 8 L 85 8.5 L 88.5 9 L 91.5 8 L 91.5 9 L 90 9.5 L 92.5 10 L 94.5 9 L 94.5 11 L 97.5 10 L 97.5 12 L 100.5 11 L 100.5 13 L 102.5 12 L 102.5 14 L 104.5 13 L 104.5 15 L 106.5 14 L 106.5 16 L 108.5 15 L 110.5 18 Q 111.8 15.8 113 18.5 L 113.5 20 Q 115.3 17.3 117 21.5 L 117.5 23 L 118.5 22 L 126 29.5 L 126.5 33 Q 128.2 30.2 130 34.5 L 134 41.5 L 133.5 43 L 135 43.5 L 134 45.5 L 136 45.5 L 135.5 47 Q 137.8 46.3 137 48.5 L 136 50.5 L 138 50.5 L 139 54.5 L 138 57.5 L 139 57.5 L 139.5 56 L 140 57.5 Q 137.5 59 141 60.5 L 140 65.5 Q 143.3 66.8 142 72.5 L 139.5 73 L 100 72.5 L 109 66.5 Q 111.8 64.8 111 59.5 Q 107.3 44.2 98.5 34 Q 86.5 21.5 66.5 17 Q 63.6 19.6 57.5 19 L 54.5 21 L 52.5 21 L 46 24 L 40 32.5 L 40 34.5 L 38 41.5 L 40 46.5 L 40 48.5 Q 45.8 62.8 56.5 72 L 60 72.5 L 9 73 L 8 65.5 L 9 65.5 L 9.5 70 L 10 63.5 L 9 59.5 L 10 59.5 L 10.5 61 L 11 57.5 L 10 55.5 L 11 55.5 L 11.5 57 L 12 54.5 L 11 52.5 L 13 52.5 L 12 49.5 L 14 49.5 L 13 47.5 L 15 47.5 L 14 44.5 L 16.5 41 L 18 40.5 L 17.5 39 L 19 39.5 L 18 37.5 L 20 37.5 L 21 35.5 Q 18.2 33.8 22.5 32 L 24 31.5 L 23 30.5 L 32.5 21 L 34 21.5 L 36.5 18 L 38.5 19 L 39.5 16 L 41.5 17 L 41.5 15 L 43.5 16 L 43.5 14 L 45.5 15 L 45.5 13 L 47.5 14 L 47.5 12 L 49.5 13 L 49.5 11 L 52.5 12 L 52.5 10 L 55.5 11 L 55.5 9 L 59.5 10 L 59.5 9 L 58 8.5 L 60.5 8 L 64.5 9 L 64.5 8 L 63 7.5 L 65.5 7 L 72.5 9 L 73.5 7 L 72.5 6 Z M 141 68 L 140 71 L 141 71 L 141 68 Z " /><path fill="rgb(242,245,244)" stroke="rgb(242,245,244)" stroke-width="1" opacity="1" d="M 54.5 22 L 57 23.5 L 54 25.5 L 55.5 23 L 54.5 22 Z " /><path fill="rgb(242,245,244)" stroke="rgb(242,245,244)" stroke-width="1" opacity="1" d="M 48.5 25 L 44.5 30 L 48.5 25 Z " /><path fill="rgb(242,245,244)" stroke="rgb(242,245,244)" stroke-width="1" opacity="1" d="M 52.5 27 L 51.5 29 L 52.5 27 Z " /><path fill="rgb(242,245,244)" stroke="rgb(242,245,244)" stroke-width="1" opacity="1" d="M 76.5 27 L 79 27.5 L 76.5 28 L 76.5 27 Z " /><path fill="rgb(242,245,244)" stroke="rgb(242,245,244)" stroke-width="1" opacity="1" d="M 47.5 37 L 48 44.5 L 47 44.5 L 47.5 37 Z " /><path fill="rgb(242,245,244)" stroke="rgb(242,245,244)" stroke-width="1" opacity="1" d="M 87.5 38 L 89 40.5 L 87 39.5 L 87.5 38 Z " /><path fill="rgb(242,245,244)" stroke="rgb(242,245,244)" stroke-width="1" opacity="1" d="M 41.5 44 L 42 46.5 L 41 46.5 L 41.5 44 Z " /><path fill="rgb(242,245,244)" stroke="rgb(242,245,244)" stroke-width="1" opacity="1" d="M 48.5 47 L 50 50.5 L 49 50.5 L 48.5 47 Z " /><path fill="rgb(242,245,244)" stroke="rgb(242,245,244)" stroke-width="1" opacity="1" d="M 67.5 48 L 66.5 50 L 64 49.5 L 67.5 48 Z " /><path fill="rgb(242,245,244)" stroke="rgb(242,245,244)" stroke-width="1" opacity="1" d="M 69.5 49 L 72 49.5 L 69.5 50 L 69.5 49 Z " /><path fill="rgb(242,245,244)" stroke="rgb(242,245,244)" stroke-width="1" opacity="1" d="M 78.5 49 L 81 49.5 L 78.5 50 L 78.5 49 Z " /><path fill="rgb(242,245,244)" stroke="rgb(242,245,244)" stroke-width="1" opacity="1" d="M 83.5 49 L 86 49.5 L 83.5 50 L 83.5 49 Z " /><path fill="rgb(242,245,244)" stroke="rgb(242,245,244)" stroke-width="1" opacity="1" d="M 44.5 52 L 49.5 58 L 44.5 52 Z " /><path fill="rgb(242,245,244)" stroke="rgb(242,245,244)" stroke-width="1" opacity="1" d="M 56.5 58 L 61 60.5 L 57 61 L 56.5 58 Z " /><path fill="rgb(242,245,244)" stroke="rgb(242,245,244)" stroke-width="1" opacity="1" d="M 9.5 74 L 141 74.5 L 9.5 75 L 9.5 74 Z " /><path fill="rgb(216,0,38)" stroke="rgb(216,0,38)" stroke-width="1" opacity="1" d="M 74.5 6 L 78 7.5 L 75.5 8 Q 74 5.5 72.5 9 L 71 8.5 L 74.5 6 Z " /><path fill="rgb(216,0,38)" stroke="rgb(216,0,38)" stroke-width="1" opacity="1" d="M 66.5 7 L 70 7.5 L 66.5 8 L 66.5 7 Z " /><path fill="rgb(216,0,38)" stroke="rgb(216,0,38)" stroke-width="1" opacity="1" d="M 79.5 7 L 83 7.5 L 79.5 8 L 79.5 7 Z " /><path fill="rgb(216,0,38)" stroke="rgb(216,0,38)" stroke-width="1" opacity="1" d="M 61.5 8 L 65 8.5 L 61.5 9 L 61.5 8 Z " /><path fill="rgb(216,0,38)" stroke="rgb(216,0,38)" stroke-width="1" opacity="1" d="M 85.5 8 L 89 8.5 L 85.5 9 L 85.5 8 Z " /><path fill="rgb(216,0,38)" stroke="rgb(216,0,38)" stroke-width="1" opacity="1" d="M 57.5 9 L 60 9.5 L 57.5 10 L 57.5 9 Z " /><path fill="rgb(216,0,38)" stroke="rgb(216,0,38)" stroke-width="1" opacity="1" d="M 90.5 9 L 93 9.5 L 90.5 10 L 90.5 9 Z " /><path fill="rgb(216,0,38)" stroke="rgb(216,0,38)" stroke-width="1" opacity="1" d="M 53.5 10 L 56 10.5 L 51.5 12 L 51.5 11 L 53.5 10 Z " /><path fill="rgb(216,0,38)" stroke="rgb(216,0,38)" stroke-width="1" opacity="1" d="M 94.5 10 L 99 11.5 L 97.5 12 L 94.5 11 L 94.5 10 Z " /><path fill="rgb(216,0,38)" stroke="rgb(216,0,38)" stroke-width="1" opacity="1" d="M 48.5 12 L 50 12.5 L 35.5 21 L 37.5 18 L 48.5 12 Z " /><path fill="rgb(216,0,38)" stroke="rgb(216,0,38)" stroke-width="1" opacity="1" d="M 100.5 12 L 109 16.5 L 107.5 16 L 100.5 13 L 100.5 12 Z " /><path fill="rgb(216,0,38)" stroke="rgb(216,0,38)" stroke-width="1" opacity="1" d="M 66.5 17 Q 87.7 21.8 100 35.5 L 109 52.5 L 111 63.5 L 106.5 69 L 99.5 73 L 60.5 73 Q 52.5 72 50 65.5 L 42 52.5 L 44 53.5 L 47.5 59 Q 48.8 56.8 50 59.5 L 50.5 61 L 52 60.5 Q 51.3 62.8 53.5 62 L 55.5 61 L 55.5 63 L 61.5 62 L 64 63 L 63.5 59 L 61 60 L 60.5 58 L 59 58.5 L 58.5 57 L 57.5 58 L 53 53.5 L 53.5 52 L 51 50.5 L 52 48.5 L 50 48.5 L 51 45.5 L 49 45.5 L 49 37.5 L 51 37 L 51 35.5 L 50 33.5 L 52.5 30 L 54 29.5 L 53 28.5 L 56.5 25 L 58 25.5 L 59.5 23 L 61.5 24 L 62 22 Q 65.3 23.1 64 19 L 62 18.5 L 66.5 17 Z M 74 22 L 74 24 L 74 25 L 69 25 L 69 28 L 72 30 L 70 33 L 74 34 L 74 32 Q 77 31 76 34 L 79 34 L 80 32 L 78 32 L 79 29 L 81 29 L 81 27 L 78 25 L 76 26 L 77 23 L 76 23 L 74 22 Z M 64 31 L 63 33 L 61 33 L 62 35 L 61 34 Q 56 33 58 38 L 60 37 Q 62 38 60 40 Q 59 43 62 42 L 65 41 L 66 43 L 68 40 L 67 38 L 69 38 Q 71 33 67 34 L 65 35 L 66 33 L 65 33 L 64 31 Z M 87 31 L 84 32 L 85 35 L 84 34 L 80 36 L 83 40 L 82 42 L 85 43 L 85 42 L 88 41 L 90 44 L 91 39 L 89 39 Q 90 36 92 38 L 92 36 L 87 33 L 87 31 Z M 67 43 L 67 46 Q 68 49 64 47 L 62 51 L 65 52 Q 66 54 64 53 L 64 55 Q 63 58 66 57 L 65 56 Q 67 57 69 54 L 69 56 L 72 56 L 73 54 L 71 54 L 74 49 L 71 47 L 69 48 L 70 44 L 67 43 Z M 81 44 L 81 46 Q 82 49 78 47 L 76 51 L 79 52 L 78 56 L 83 54 L 83 56 L 86 56 L 87 54 L 85 54 L 88 49 L 85 47 L 83 48 L 84 46 L 81 44 Z " /><path fill="rgb(216,0,38)" stroke="rgb(216,0,38)" stroke-width="1" opacity="1" d="M 110.5 17 L 111.5 19 L 110.5 17 Z " /><path fill="rgb(216,0,38)" stroke="rgb(216,0,38)" stroke-width="1" opacity="1" d="M 113.5 19 L 115.5 22 L 113.5 19 Z " /><path fill="rgb(216,0,38)" stroke="rgb(216,0,38)" stroke-width="1" opacity="1" d="M 33.5 21 L 23.5 32 L 33.5 21 Z " /><path fill="rgb(216,0,38)" stroke="rgb(216,0,38)" stroke-width="1" opacity="1" d="M 48.5 23 L 46.5 26 L 48.5 23 Z " /><path fill="rgb(216,0,38)" stroke="rgb(216,0,38)" stroke-width="1" opacity="1" d="M 43.5 28 L 42.5 30 L 43.5 28 Z " /><path fill="rgb(216,0,38)" stroke="rgb(216,0,38)" stroke-width="1" opacity="1" d="M 22.5 33 L 20 36.5 L 17.5 41 L 18 39.5 L 22.5 33 Z " /><path fill="rgb(216,0,38)" stroke="rgb(216,0,38)" stroke-width="1" opacity="1" d="M 132.5 41 L 133.5 43 L 132.5 41 Z " /><path fill="rgb(216,0,38)" stroke="rgb(216,0,38)" stroke-width="1" opacity="1" d="M 134.5 44 L 136 46.5 L 134 45.5 L 134.5 44 Z " /><path fill="rgb(216,0,38)" stroke="rgb(216,0,38)" stroke-width="1" opacity="1" d="M 14.5 46 L 15 47.5 L 13.5 50 L 13 48.5 L 14.5 46 Z " /><path fill="rgb(216,0,38)" stroke="rgb(216,0,38)" stroke-width="1" opacity="1" d="M 11.5 54 L 12 56.5 L 10.5 61 L 10 57.5 L 11.5 54 Z " /><path fill="rgb(216,0,38)" stroke="rgb(216,0,38)" stroke-width="1" opacity="1" d="M 138.5 55 L 140 58.5 L 138 57.5 L 138.5 55 Z " /><path fill="rgb(216,0,38)" stroke="rgb(216,0,38)" stroke-width="1" opacity="1" d="M 9.5 63 L 10 69.5 L 8.5 73 L 8 70.5 L 9.5 63 Z " /><path fill="rgb(231,215,217)" stroke="rgb(231,215,217)" stroke-width="1" opacity="0.3843137254901961" d="M 28.5 23 L 25.5 27 L 28.5 23 Z " /><path fill="rgb(231,215,217)" stroke="rgb(231,215,217)" stroke-width="1" opacity="0.3843137254901961" d="M 7.5 73 L 8 81.5 L 7 81.5 L 6 77.5 L 7.5 73 Z " /><path fill="rgb(231,215,217)" stroke="rgb(231,215,217)" stroke-width="1" opacity="0.3843137254901961" d="M 142.5 74 L 143 77.5 L 142 78.5 L 141 90.5 L 133 109.5 L 118.5 126 L 109.5 132 L 99.5 137 L 94.5 138 L 92.5 140 L 91.5 138 Q 111.9 132.9 124 119.5 Q 132.1 111.1 137 99.5 L 141 86.5 Q 140 78.5 142.5 74 Z " /><path fill="rgb(231,215,217)" stroke="rgb(231,215,217)" stroke-width="1" opacity="0.3843137254901961" d="M 8.5 83 Q 13 111 31.5 125 L 47.5 135 L 59 138.5 L 56.5 140 L 55.5 138 L 53.5 138 L 39.5 132 L 26 122 L 18.5 112 L 17 111.5 L 17 109.5 L 12 100.5 L 8 88.5 L 8.5 83 Z " /><path fill="rgb(231,215,217)" stroke="rgb(231,215,217)" stroke-width="1" opacity="0.3843137254901961" d="M 60.5 139 L 64.5 140 L 85 140.5 L 74.5 141 L 73.5 142 L 70.5 141 L 60.5 140 L 60.5 139 Z " /><path fill="rgb(231,215,217)" stroke="rgb(231,215,217)" stroke-width="1" opacity="0.3843137254901961" d="M 86.5 139 L 90 139.5 L 86.5 140 L 86.5 139 Z " /><path fill="rgb(240,240,240)" stroke="rgb(240,240,240)" stroke-width="1" opacity="0.9921568627450981" d="M 141.5 74 L 142 77.5 L 141 77.5 L 141.5 74 Z " /><path fill="rgb(240,240,240)" stroke="rgb(240,240,240)" stroke-width="1" opacity="0.9921568627450981" d="M 8.5 75 L 9 82.5 L 8 82.5 L 8.5 75 Z " /><path fill="rgb(240,240,240)" stroke="rgb(240,240,240)" stroke-width="1" opacity="0.9921568627450981" d="M 140.5 82 L 141 86.5 L 140 86.5 L 140.5 82 Z " /><path fill="rgb(240,240,240)" stroke="rgb(240,240,240)" stroke-width="1" opacity="0.9921568627450981" d="M 9.5 84 L 10 88.5 L 9 88.5 L 9.5 84 Z " /><path fill="rgb(240,240,240)" stroke="rgb(240,240,240)" stroke-width="1" opacity="0.9921568627450981" d="M 139.5 88 L 140 90.5 L 139 90.5 L 139.5 88 Z " /><path fill="rgb(240,240,240)" stroke="rgb(240,240,240)" stroke-width="1" opacity="0.9921568627450981" d="M 12.5 96 L 20 110.5 L 18 109.5 Q 12.5 103.8 12.5 96 Z " /><path fill="rgb(240,240,240)" stroke="rgb(240,240,240)" stroke-width="1" opacity="0.9921568627450981" d="M 136.5 98 L 137 99.5 L 131.5 109 L 132 107.5 L 136.5 98 Z " /><path fill="rgb(240,240,240)" stroke="rgb(240,240,240)" stroke-width="1" opacity="0.9921568627450981" d="M 130.5 110 L 129 112.5 L 119.5 124 L 115.5 127 L 118.5 123 L 123 119.5 L 130.5 110 Z " /><path fill="rgb(240,240,240)" stroke="rgb(240,240,240)" stroke-width="1" opacity="0.9921568627450981" d="M 20.5 112 L 32 124.5 L 23 116.5 L 20.5 112 Z " /><path fill="rgb(240,240,240)" stroke="rgb(240,240,240)" stroke-width="1" opacity="0.9921568627450981" d="M 33.5 125 L 35.5 128 L 33.5 125 Z " /><path fill="rgb(240,240,240)" stroke="rgb(240,240,240)" stroke-width="1" opacity="0.9921568627450981" d="M 113.5 127 L 112.5 129 L 109.5 131 L 111.5 128 L 113.5 127 Z " /><path fill="rgb(240,240,240)" stroke="rgb(240,240,240)" stroke-width="1" opacity="0.9921568627450981" d="M 37.5 128 L 38.5 130 L 37.5 128 Z " /><path fill="rgb(240,240,240)" stroke="rgb(240,240,240)" stroke-width="1" opacity="0.9921568627450981" d="M 42.5 131 L 49 134.5 L 47.5 135 Q 42.9 133.8 42.5 131 Z " /><path fill="rgb(240,240,240)" stroke="rgb(240,240,240)" stroke-width="1" opacity="0.9921568627450981" d="M 100.5 134 L 102 134.5 L 98.5 136 L 98.5 135 L 100.5 134 Z " /><path fill="rgb(240,240,240)" stroke="rgb(240,240,240)" stroke-width="1" opacity="0.9921568627450981" d="M 50.5 135 L 55 136.5 L 52.5 137 L 50.5 135 Z " /><path fill="rgb(240,240,240)" stroke="rgb(240,240,240)" stroke-width="1" opacity="0.9921568627450981" d="M 59.5 138 L 63 138.5 L 59.5 139 L 59.5 138 Z " /><path fill="rgb(240,240,240)" stroke="rgb(240,240,240)" stroke-width="1" opacity="0.9921568627450981" d="M 87.5 138 L 91 138.5 L 87.5 139 L 87.5 138 Z " /><path fill="rgb(240,240,240)" stroke="rgb(240,240,240)" stroke-width="1" opacity="0.9921568627450981" d="M 64.5 139 L 70 139.5 L 64.5 140 L 64.5 139 Z " /><path fill="rgb(240,240,240)" stroke="rgb(240,240,240)" stroke-width="1" opacity="0.9921568627450981" d="M 80.5 139 L 86 139.5 L 80.5 140 L 80.5 139 Z " /><path fill="rgb(240,240,240)" stroke="rgb(240,240,240)" stroke-width="1" opacity="0.996078431372549" d="M 56.5 21 L 58 23.5 Q 56 21.8 54 25.5 Q 54.8 27.8 52.5 27 L 51.5 30 L 50 30.5 L 50.5 32 L 49 32.5 L 49.5 34 L 48 34.5 L 49 37 L 47 37.5 L 47 45 Q 49.7 43.9 49 46.5 L 48 48.5 L 49 51 L 52 52.5 L 51.5 54 L 54 55.5 L 56 58.5 L 57 61 L 55 61 Q 56.1 58.3 53.5 59 L 52 59.5 L 51.5 58 L 50 58.5 L 48.5 56 Q 46.8 58.7 45 54.5 Q 47.3 53.2 44.5 52 L 43 51.5 L 43.5 50 L 42 49.5 L 42.5 48 L 41 47.5 L 42 44 L 40 44 L 40 38 Q 42.7 39.1 42 36.5 L 41 34 Q 43.7 35.1 43 32.5 L 43.5 30 L 51 25 L 51.5 23 L 53.5 23 Q 57 24 56.5 21 Z " /><path fill="rgb(240,240,240)" stroke="rgb(240,240,240)" stroke-width="1" opacity="0.996078431372549" d="M 74.5 25 L 76 28 L 78 28.5 L 76.5 31 L 78 31.5 L 76.5 32 L 74.5 31 L 72.5 32 L 72.5 31 Q 74.8 31.8 74 29.5 L 73 27 L 75 26.5 L 74.5 25 Z " /><path fill="rgb(240,240,240)" stroke="rgb(240,240,240)" stroke-width="1" opacity="0.996078431372549" d="M 62.5 35 L 65 35.5 L 66 40 L 62.5 39 L 61.5 41 L 61 38.5 L 62.5 35 Z " /><path fill="rgb(240,240,240)" stroke="rgb(240,240,240)" stroke-width="1" opacity="0.996078431372549" d="M 85.5 36 L 89 37.5 L 87 38 L 86.5 40 L 84 39 L 85.5 36 Z " /><path fill="rgb(240,240,240)" stroke="rgb(240,240,240)" stroke-width="1" opacity="0.996078431372549" d="M 68.5 47 L 69 50 L 71 50.5 L 67.5 52 L 65 50.5 L 68 48.5 L 68.5 47 Z " /><path fill="rgb(240,240,240)" stroke="rgb(240,240,240)" stroke-width="1" opacity="0.996078431372549" d="M 82.5 47 L 83 50 L 85 50.5 L 83 51 Q 81.9 53.7 84.5 53 L 84.5 54 L 81.5 53 L 80 53.5 L 81 51 L 79 50.5 L 81 50 L 82.5 47 Z " /><path fill="rgb(240,240,240)" stroke="rgb(240,240,240)" stroke-width="1" opacity="0.996078431372549" d="M 8.5 74 L 9.5 75 L 141 75 Q 141.2 87.9 137 97.5 Q 131 113 119.5 123 L 108.5 131 L 97.5 136 Q 86.4 140.4 70.5 140 L 69.5 139 L 58.5 138 L 39.5 130 L 24 116.5 Q 16.4 107.6 12 95.5 L 10 89.5 L 9 75.5 L 8.5 74 Z " /><path fill="rgb(237,182,192)" stroke="rgb(237,182,192)" stroke-width="1" opacity="0.996078431372549" d="M 51.5 22 L 53 22.5 L 50.5 24 L 51.5 22 Z " /><path fill="rgb(237,182,192)" stroke="rgb(237,182,192)" stroke-width="1" opacity="0.996078431372549" d="M 74 23 Q 77 21.8 76 25.5 L 76.5 27 L 74 23 Z " /><path fill="rgb(237,182,192)" stroke="rgb(237,182,192)" stroke-width="1" opacity="0.996078431372549" d="M 48.5 24 L 43.5 30 L 48.5 24 Z " /><path fill="rgb(237,182,192)" stroke="rgb(237,182,192)" stroke-width="1" opacity="0.996078431372549" d="M 56.5 24 L 52.5 29 L 56.5 24 Z " /><path fill="rgb(237,182,192)" stroke="rgb(237,182,192)" stroke-width="1" opacity="0.996078431372549" d="M 70.5 27 L 73 30.5 L 72 30.5 L 70.5 27 Z " /><path fill="rgb(237,182,192)" stroke="rgb(237,182,192)" stroke-width="1" opacity="0.996078431372549" d="M 79.5 27 L 78 29.5 L 77.5 31 L 77 29.5 L 79.5 27 Z " /><path fill="rgb(237,182,192)" stroke="rgb(237,182,192)" stroke-width="1" opacity="0.996078431372549" d="M 86.5 32 L 86 33.5 L 84.5 36 L 81.5 37 L 81 35 L 85 35 L 85 33.5 L 86.5 32 Z " /><path fill="rgb(237,182,192)" stroke="rgb(237,182,192)" stroke-width="1" opacity="0.996078431372549" d="M 62.5 34 L 61.5 36 L 60 36.5 L 60.5 38 L 58.5 35 L 62.5 34 Z " /><path fill="rgb(237,182,192)" stroke="rgb(237,182,192)" stroke-width="1" opacity="0.996078431372549" d="M 64.5 34 L 69 35.5 L 66 37.5 L 66.5 36 L 64.5 34 Z " /><path fill="rgb(237,182,192)" stroke="rgb(237,182,192)" stroke-width="1" opacity="0.996078431372549" d="M 87.5 34 L 92 35.5 L 88 38.5 L 89.5 36 Q 85.5 37 87.5 34 Z " /><path fill="rgb(237,182,192)" stroke="rgb(237,182,192)" stroke-width="1" opacity="0.996078431372549" d="M 40.5 35 L 41 37.5 L 40 37.5 L 40.5 35 Z " /><path fill="rgb(237,182,192)" stroke="rgb(237,182,192)" stroke-width="1" opacity="0.996078431372549" d="M 48.5 37 L 49 44.5 L 48 44.5 L 48.5 37 Z " /><path fill="rgb(237,182,192)" stroke="rgb(237,182,192)" stroke-width="1" opacity="0.996078431372549" d="M 83.5 39 L 84 41.5 L 83 41.5 L 83.5 39 Z " /><path fill="rgb(237,182,192)" stroke="rgb(237,182,192)" stroke-width="1" opacity="0.996078431372549" d="M 60.5 40 L 63 40.5 L 60 42 L 60.5 40 Z " /><path fill="rgb(237,182,192)" stroke="rgb(237,182,192)" stroke-width="1" opacity="0.996078431372549" d="M 87.5 40 L 90 40.5 Q 90.8 42.8 88.5 42 L 87.5 40 Z " /><path fill="rgb(237,182,192)" stroke="rgb(237,182,192)" stroke-width="1" opacity="0.996078431372549" d="M 40.5 44 L 41 46.5 L 40 46.5 L 40.5 44 Z " /><path fill="rgb(237,182,192)" stroke="rgb(237,182,192)" stroke-width="1" opacity="0.996078431372549" d="M 67 45 Q 70 44 69 47 Q 66 48 67 45 Z " /><path fill="rgb(237,182,192)" stroke="rgb(237,182,192)" stroke-width="1" opacity="0.996078431372549" d="M 81 45 Q 84 44 83 47 Q 80 48 81 45 Z " /><path fill="rgb(237,182,192)" stroke="rgb(237,182,192)" stroke-width="1" opacity="0.996078431372549" d="M 49.5 47 L 52 51.5 L 50 50.5 L 49.5 47 Z " /><path fill="rgb(237,182,192)" stroke="rgb(237,182,192)" stroke-width="1" opacity="0.996078431372549" d="M 41.5 48 L 45 53.5 L 42 51.5 L 41.5 48 Z " /><path fill="rgb(237,182,192)" stroke="rgb(237,182,192)" stroke-width="1" opacity="0.996078431372549" d="M 62.5 48 L 67 48.5 L 64 49.5 L 66 52.5 L 65 52.5 L 62.5 48 Z " /><path fill="rgb(237,182,192)" stroke="rgb(237,182,192)" stroke-width="1" opacity="0.996078431372549" d="M 69.5 48 L 74 48.5 L 70.5 53 L 70 51.5 L 71.5 49 Q 68.5 49.5 69.5 48 Z " /><path fill="rgb(237,182,192)" stroke="rgb(237,182,192)" stroke-width="1" opacity="0.996078431372549" d="M 76.5 48 L 81 48.5 L 78 49.5 L 80 52.5 L 79 52.5 L 76.5 48 Z " /><path fill="rgb(237,182,192)" stroke="rgb(237,182,192)" stroke-width="1" opacity="0.996078431372549" d="M 83.5 48 Q 87.9 46.5 87 49.5 L 84.5 53 L 84 51.5 L 85.5 49 Q 82.5 49.5 83.5 48 Z " /><path fill="rgb(237,182,192)" stroke="rgb(237,182,192)" stroke-width="1" opacity="0.996078431372549" d="M 52.5 53 L 60 59.5 L 58.5 59 L 52.5 53 Z " /><path fill="rgb(237,182,192)" stroke="rgb(237,182,192)" stroke-width="1" opacity="0.996078431372549" d="M 48.5 57 L 49.5 59 L 48.5 57 Z " /><path fill="rgb(237,182,192)" stroke="rgb(237,182,192)" stroke-width="1" opacity="0.996078431372549" d="M 61.5 60 Q 64.1 59.3 63 62 L 57 61.5 L 61.5 60 Z " /><path fill="rgb(237,182,192)" stroke="rgb(237,182,192)" stroke-width="1" opacity="0.996078431372549" d="M 8.5 73 L 142 73.5 L 8.5 74 L 8.5 73 Z " /></svg>